<svg width="95" height="29" viewBox="0 0 95 29" fill="none" xmlns="http://www.w3.org/2000/svg">
<rect width="95" height="29" fill="url(#paint0_linear_53_3)"/>
<path d="M4.30276 28V1.09091H22.1195V5.7816H9.99204V12.1935H20.937V16.8842H9.99204V28H4.30276ZM16.8813 1.09091H23.8977L31.3082 19.1705H31.6235L39.034 1.09091H46.0503V28H40.5319V10.4854H40.3085L33.3447 27.8686H29.5869L22.6231 10.4197H22.3998V28H16.8813V1.09091ZM41.3837 28V24.6232L54.812 5.7816H41.3574V1.09091H61.9597V4.46768L48.5183 23.3093H61.986V28H41.3837ZM57.2865 28V1.09091H75.1032V5.7816H62.9757V12.1935H73.9207V16.8842H62.9757V28H57.2865ZM69.865 28V1.09091H75.5543V12.9556H75.9091L85.5927 1.09091H92.4119L82.4261 13.1396L92.5302 28H85.7241L78.353 16.9368L75.5543 20.353V28H69.865Z" fill="#222222"/>
<defs>
<linearGradient id="paint0_linear_53_3" x1="47.5" y1="0" x2="47.5" y2="29" gradientUnits="userSpaceOnUse">
<stop stop-color="#82421E"/>
<stop offset="1" stop-color="#7D3636" stop-opacity="0"/>
<stop offset="1" stop-color="#070303"/>
</linearGradient>
</defs>
</svg>
