<svg width="149" height="56" viewBox="0 0 149 56" fill="none" xmlns="http://www.w3.org/2000/svg">
<path d="M20.5432 26.0622C22.763 27.0273 24.3072 28.0407 25.1758 29.1023C26.0444 30.1479 26.6878 31.7725 27.106 33.9762C27.6529 36.8715 28.4089 38.8178 29.374 39.8151C30.3391 40.7963 31.6018 41.3191 33.1621 41.3834C33.5964 41.4156 33.8136 41.5765 33.8136 41.866C33.8136 42.1555 33.5642 42.3003 33.0656 42.3003C28.5617 42.3003 25.8272 42.1555 24.8621 41.866C23.9131 41.5604 23.2053 39.9116 22.7388 36.9198C22.3045 34.0083 21.8461 31.8851 21.3636 30.55C20.8971 29.1988 20.1411 28.1694 19.0955 27.4616C18.0661 26.7378 16.4495 26.3759 14.2458 26.3759C13.4094 26.3759 12.4604 26.4643 11.3987 26.6413C11.3183 27.6546 11.2781 28.7082 11.2781 29.802C11.2781 33.9359 11.3344 36.6141 11.447 37.8366C11.5596 39.043 11.8974 39.9277 12.4604 40.4907C13.0394 41.0376 13.9965 41.3271 15.3316 41.3593C15.9107 41.3754 16.2002 41.5121 16.2002 41.7695C16.2002 42.0751 15.8463 42.2279 15.1386 42.2279H3.19525C2.50358 42.2279 2.15775 42.0751 2.15775 41.7695C2.15775 41.496 2.4312 41.3593 2.97809 41.3593C4.20057 41.3593 5.04505 41.1743 5.51152 40.8044C5.99408 40.4344 6.37209 39.8634 6.64554 39.0913C6.91899 38.3031 7.05571 36.8876 7.05571 34.8448L7.00745 29.9227L7.03158 22.4189C7.03158 18.5906 6.94311 16.0572 6.76618 14.8186C6.60532 13.58 6.30775 12.7516 5.87344 12.3334C5.43914 11.8991 4.43381 11.5613 2.85745 11.3201C2.51966 11.2718 2.35077 11.1351 2.35077 10.9099C2.35077 10.6525 2.68856 10.5238 3.36414 10.5238L17.6479 10.2102C21.5888 10.2102 24.4439 10.9662 26.2133 12.4782C27.9987 13.9902 28.8915 15.84 28.8915 18.0276C28.8915 19.4109 28.5295 20.6736 27.8057 21.8157C27.098 22.9578 26.2535 23.7861 25.2723 24.3009C24.2911 24.8156 22.7147 25.4027 20.5432 26.0622ZM11.3987 25.4349C14.4871 25.3705 16.8034 25.1534 18.3476 24.7834C19.8918 24.4135 21.2027 23.6012 22.2804 22.3465C23.3742 21.0919 23.9211 19.604 23.9211 17.8828C23.9211 16.0652 23.3179 14.4808 22.1115 13.1297C20.9051 11.7785 18.9749 11.1029 16.3208 11.1029C14.8732 11.1029 13.2727 11.2959 11.5194 11.682C11.3263 16.1054 11.2298 19.6281 11.2298 22.25C11.2298 23.1508 11.2861 24.2124 11.3987 25.4349Z" fill="#445B5E"/>
<path d="M68.2656 22.3125C68.3438 23.3281 68.4141 26.2656 68.4766 31.125C68.5078 34.1562 68.5859 36.1797 68.7109 37.1953C68.8359 38.1953 69.2266 39.0234 69.8828 39.6797C70.5547 40.3359 71.3203 40.6641 72.1797 40.6641C73.3047 40.6641 74.4297 40.1406 75.5547 39.0938C76.6953 38.0469 77.3984 36.9297 77.6641 35.7422C77.9297 34.5391 78.0625 31.7891 78.0625 27.4922C78.0625 25.4922 77.9375 24.2812 77.6875 23.8594C77.4375 23.4375 76.8281 23.1953 75.8594 23.1328C75.5 23.1172 75.3203 22.9844 75.3203 22.7344C75.3203 22.5625 75.375 22.4531 75.4844 22.4062C75.5938 22.3438 75.9453 22.3125 76.5391 22.3125H81.2266C81.3672 24.0156 81.4375 25.9219 81.4375 28.0312L81.25 36.8438C81.25 38.6562 81.3984 39.7969 81.6953 40.2656C82.0078 40.7344 82.4922 41 83.1484 41.0625C83.5547 41.125 83.7578 41.2812 83.7578 41.5312C83.7578 41.8125 83.3594 41.9531 82.5625 41.9531H78.8594C78.2188 41.9531 77.8984 41.7422 77.8984 41.3203C77.8984 41.1953 77.9062 41.0547 77.9219 40.8984C77.9688 40.4297 77.9922 39.9531 77.9922 39.4688C77.9922 39.0625 77.9688 38.4688 77.9219 37.6875C76.7344 39.2188 75.5 40.3672 74.2188 41.1328C72.9375 41.8984 71.6016 42.2812 70.2109 42.2812C69.0234 42.2812 68.0234 41.9922 67.2109 41.4141C66.4141 40.8359 65.8828 40.1406 65.6172 39.3281C65.3672 38.5 65.1953 36.4531 65.1016 33.1875C65.0078 29.9219 64.9609 27.3594 64.9609 25.5C64.9609 24.4844 64.9062 23.8516 64.7969 23.6016C64.6875 23.3516 64.3438 23.2109 63.7656 23.1797C63.1406 23.1328 62.8281 22.9766 62.8281 22.7109C62.8281 22.4453 63.2031 22.3125 63.9531 22.3125H68.2656ZM93.9062 9.89062C93.9531 11.8594 93.9922 13.8281 94.0234 15.7969L93.9766 30.3984L94.0703 37.4766C94.0703 38.8203 94.2578 39.7891 94.6328 40.3828C95.0234 40.9766 95.8516 41.3281 97.1172 41.4375C97.6172 41.4844 97.8672 41.6328 97.8672 41.8828C97.8672 42.1484 97.6641 42.2812 97.2578 42.2812C97.1484 42.2812 97.0156 42.2734 96.8594 42.2578C95.25 42.0859 93.3281 42 91.0938 42C89.7344 42 88.6406 42.0625 87.8125 42.1875C87.6406 42.2031 87.4844 42.2109 87.3438 42.2109C86.875 42.2109 86.6406 42.0703 86.6406 41.7891C86.6406 41.5234 86.8516 41.3828 87.2734 41.3672C88.6953 41.3516 89.625 40.9453 90.0625 40.1484C90.5156 39.3359 90.7422 37.9844 90.7422 36.0938L90.6719 22.7344C90.6562 18.4375 90.5938 15.875 90.4844 15.0469C90.3906 14.2031 90.0703 13.5 89.5234 12.9375C88.9766 12.375 88.2109 12.0156 87.2266 11.8594C86.6172 11.7656 86.3125 11.6016 86.3125 11.3672C86.3125 11.1016 86.5625 10.9531 87.0625 10.9219C89.9219 10.7344 92.0703 10.3906 93.5078 9.89062H93.9062ZM104.617 10.4062C105.211 10.4062 105.742 10.625 106.211 11.0625C106.68 11.5 106.914 11.9766 106.914 12.4922C106.914 13.1016 106.719 13.625 106.328 14.0625C105.953 14.5 105.43 14.7188 104.758 14.7188C104.164 14.7188 103.633 14.5312 103.164 14.1562C102.695 13.7656 102.461 13.2422 102.461 12.5859C102.461 11.9453 102.656 11.4219 103.047 11.0156C103.453 10.6094 103.977 10.4062 104.617 10.4062ZM107.219 21.8672L107.195 27.1406L107.242 32.0625V35.7656L107.219 38.5781C107.219 39.7031 107.398 40.4219 107.758 40.7344C108.133 41.0312 108.688 41.1953 109.422 41.2266C110.281 41.2734 110.711 41.4531 110.711 41.7656C110.711 42.0156 110.547 42.1406 110.219 42.1406C110.094 42.1406 109.953 42.1328 109.797 42.1172C108.344 41.9297 106.992 41.8359 105.742 41.8359C103.742 41.8359 102.359 41.8984 101.594 42.0234C101.438 42.0547 101.281 42.0703 101.125 42.0703C100.75 42.0703 100.562 41.9297 100.562 41.6484C100.562 41.3672 101 41.1719 101.875 41.0625C102.75 40.9531 103.305 40.7656 103.539 40.5C103.789 40.2188 103.914 39.4375 103.914 38.1562L104.055 28.4531C104.055 25.8594 103.859 24.3281 103.469 23.8594C103.078 23.375 102.32 23.1172 101.195 23.0859C100.82 23.0859 100.633 22.9609 100.633 22.7109C100.633 22.5703 100.695 22.4609 100.82 22.3828C100.945 22.3047 101.875 22.2031 103.609 22.0781C105.344 21.9531 106.547 21.8828 107.219 21.8672ZM120.508 24.0234C120.289 27.4766 120.18 30.8672 120.18 34.1953C120.18 36.7578 120.484 38.4297 121.094 39.2109C121.703 39.9922 122.578 40.3828 123.719 40.3828C124.547 40.3828 125.461 40.0781 126.461 39.4688C126.82 39.25 127.039 39.1406 127.117 39.1406C127.32 39.1406 127.422 39.25 127.422 39.4688C127.422 39.8438 126.867 40.4375 125.758 41.25C124.648 42.0625 123.289 42.4688 121.68 42.4688C120.086 42.4688 118.891 41.9141 118.094 40.8047C117.297 39.6953 116.898 38.0391 116.898 35.8359C116.898 33.5391 117.039 29.6016 117.32 24.0234C117.211 23.9922 116.469 23.9375 115.094 23.8594L113.688 23.7656C113.344 23.75 113.172 23.6328 113.172 23.4141C113.172 23.2109 113.367 23.0469 113.758 22.9219C114.398 22.6875 115.477 22 116.992 20.8594C118.508 19.7188 119.391 18.1094 119.641 16.0312C119.703 15.4844 119.875 15.2109 120.156 15.2109C120.438 15.2109 120.578 15.4297 120.578 15.8672C120.578 16.0078 120.57 16.1562 120.555 16.3125C120.508 16.9219 120.484 17.625 120.484 18.4219L120.508 22.0781L125.641 22.0078C126.516 22.0078 126.969 22.1094 127 22.3125C126.984 23.0312 126.867 23.4844 126.648 23.6719C125.836 23.6719 123.789 23.7891 120.508 24.0234ZM133.586 31.0547C133.523 31.8516 133.492 32.4844 133.492 32.9531C133.492 35.1719 134.141 37.0469 135.438 38.5781C136.75 40.1094 138.367 40.875 140.289 40.875C142.164 40.875 143.906 40.125 145.516 38.625C145.984 38.2031 146.281 37.9922 146.406 37.9922C146.656 37.9922 146.789 38.1953 146.805 38.6016C146.211 39.6953 145.195 40.6172 143.758 41.3672C142.32 42.1172 140.719 42.4922 138.953 42.4922C136.359 42.4922 134.164 41.5625 132.367 39.7031C130.57 37.8281 129.672 35.4609 129.672 32.6016C129.672 29.5391 130.656 26.9844 132.625 24.9375C134.609 22.8906 136.727 21.8672 138.977 21.8672C141.086 21.8672 142.992 22.6719 144.695 24.2812C146.398 25.875 147.25 27.75 147.25 29.9062C147.25 30.2344 147.195 30.4766 147.086 30.6328C146.992 30.7891 146.398 30.8672 145.305 30.8672L133.586 31.0547ZM133.586 29.8359C135.617 29.9297 137.586 29.9766 139.492 29.9766L140.734 29.9062C141.672 29.875 142.391 29.6953 142.891 29.3672C143.391 29.0234 143.641 28.4297 143.641 27.5859C143.641 26.2734 143.188 25.1328 142.281 24.1641C141.391 23.1797 140.336 22.6875 139.117 22.6875C137.992 22.6875 136.867 23.25 135.742 24.375C134.633 25.4844 133.914 27.3047 133.586 29.8359Z" fill="#445B5E"/>
<path d="M45.9582 44.2372C53.6337 44.2372 59.8559 38.015 59.8559 30.3395C59.8559 22.6641 53.6337 16.4419 45.9582 16.4419C38.2827 16.4419 32.0605 22.6641 32.0605 30.3395C32.0605 38.015 38.2827 44.2372 45.9582 44.2372Z" fill="#F6D738"/>
<path d="M45.9583 42.1353C52.4728 42.1353 57.7539 36.8542 57.7539 30.3396C57.7539 23.8251 52.4728 18.544 45.9583 18.544C39.4437 18.544 34.1626 23.8251 34.1626 30.3396C34.1626 36.8542 39.4437 42.1353 45.9583 42.1353Z" fill="#F3CC30"/>
<path d="M52.1273 20.2748C53.5732 22.5258 54.2109 25.2014 53.9358 27.8626C53.6607 30.5238 52.4891 33.0124 50.6134 34.92C48.7376 36.8277 46.269 38.041 43.6128 38.3608C40.9566 38.6806 38.2706 38.088 35.9956 36.6802C36.9525 38.1699 38.2324 39.425 39.7405 40.3526C41.2486 41.2801 42.9462 41.8563 44.7073 42.0384C46.4685 42.2204 48.248 42.0037 49.9139 41.4042C51.5799 40.8048 53.0895 39.838 54.3309 38.5756C55.5723 37.3131 56.5135 35.7874 57.0849 34.1116C57.6562 32.4358 57.843 30.6529 57.6313 28.8951C57.4196 27.1373 56.815 25.4496 55.8622 23.9574C54.9094 22.4651 53.6328 21.2064 52.1273 20.2748Z" fill="#EDBD31"/>
<path d="M36.2253 31.4199C36.223 29.2439 36.9025 27.122 38.1682 25.3521C39.434 23.5821 41.2224 22.2533 43.2823 21.5521C45.3421 20.8509 47.5699 20.8127 49.6526 21.4427C51.7353 22.0728 53.5683 23.3395 54.894 25.065C54.1813 23.8326 53.2235 22.7594 52.0797 21.9119C50.9359 21.0643 49.6304 20.4602 48.2439 20.1371C46.8574 19.814 45.4194 19.7786 44.0187 20.0332C42.618 20.2877 41.2844 20.8268 40.1003 21.6171C38.9162 22.4074 37.9067 23.4321 37.1343 24.628C36.3618 25.8238 35.8428 27.1654 35.6093 28.5697C35.3758 29.9741 35.4327 31.4114 35.7766 32.7928C36.1205 34.1743 36.7441 35.4706 37.6087 36.6015C36.7013 35.0255 36.2242 33.2385 36.2253 31.4199V31.4199Z" fill="#F7DB5E"/>
<path d="M46.9308 22.7286V24.2294C47.4629 24.3012 47.9678 24.5082 48.3973 24.8306C48.8529 25.2154 49.2269 25.6874 49.4972 26.2189L48.0013 27.0548C47.5516 26.2336 46.965 25.8279 46.2366 25.8279C45.8269 25.8137 45.4269 25.9552 45.1172 26.2238C44.9774 26.3455 44.8654 26.4957 44.7887 26.6644C44.7119 26.833 44.6723 27.0162 44.6723 27.2015C44.668 27.3689 44.6978 27.5355 44.76 27.691C44.8222 27.8464 44.9155 27.9876 45.0341 28.1059C45.4623 28.4588 45.9442 28.741 46.4615 28.9418C46.986 29.1768 47.4968 29.4412 47.9916 29.7337C48.3287 29.9289 48.6364 30.1708 48.9057 30.4523C49.4781 31.0651 49.7886 31.8772 49.7709 32.7156C49.783 33.5487 49.5067 34.3604 48.9888 35.0131C48.468 35.6765 47.74 36.1464 46.921 36.3477V37.9364H45.5767V36.3917C44.7231 36.2973 43.9209 35.9364 43.284 35.3602C42.6776 34.6688 42.2749 33.8227 42.1206 32.916L43.8071 32.5641C43.9509 33.1782 44.241 33.7484 44.6528 34.2261C45.0529 34.5444 45.5522 34.7119 46.0633 34.6994C46.5744 34.6869 47.0649 34.4951 47.4489 34.1577C47.6337 33.9781 47.7788 33.7617 47.8748 33.5226C47.9708 33.2835 48.0156 33.0269 48.0062 32.7694C48.0168 32.5454 47.981 32.3217 47.9011 32.1123C47.8212 31.9028 47.6989 31.7121 47.5418 31.5522C47.3238 31.3666 47.088 31.2028 46.8379 31.0633C46.455 30.8382 46.0601 30.6342 45.6549 30.4523C44.9261 30.1812 44.2607 29.7636 43.6996 29.2253C43.2072 28.6772 42.9416 27.9625 42.9565 27.2259C42.9535 26.876 43.0131 26.5283 43.1325 26.1994C43.2427 25.8857 43.4083 25.5943 43.6213 25.339C43.8575 25.07 44.1367 24.8421 44.4475 24.6644C44.7965 24.4687 45.1695 24.3192 45.5571 24.2196V22.7189L46.9308 22.7286Z" fill="#D49A34"/>
</svg>
