<svg width="159" height="53" viewBox="0 0 159 53" fill="none" xmlns="http://www.w3.org/2000/svg">
<path d="M87.9581 44.2372C95.6336 44.2372 101.856 38.015 101.856 30.3396C101.856 22.6641 95.6336 16.4419 87.9581 16.4419C80.2826 16.4419 74.0604 22.6641 74.0604 30.3396C74.0604 38.015 80.2826 44.2372 87.9581 44.2372Z" fill="#F6D738"/>
<path d="M87.9582 42.1353C94.4727 42.1353 99.7538 36.8542 99.7538 30.3396C99.7538 23.825 94.4727 18.5439 87.9582 18.5439C81.4436 18.5439 76.1625 23.825 76.1625 30.3396C76.1625 36.8542 81.4436 42.1353 87.9582 42.1353Z" fill="#F3CC30"/>
<path d="M94.1272 20.2749C95.5731 22.5259 96.2108 25.2016 95.9357 27.8627C95.6606 30.5239 94.489 33.0126 92.6132 34.9202C90.7374 36.8278 88.2689 38.0411 85.6127 38.3609C82.9565 38.6808 80.2705 38.0881 77.9955 36.6803C78.9524 38.17 80.2323 39.4251 81.7404 40.3527C83.2485 41.2803 84.9461 41.8565 86.7072 42.0385C88.4683 42.2206 90.2479 42.0038 91.9138 41.4044C93.5798 40.8049 95.0894 39.8381 96.3308 38.5757C97.5721 37.3133 98.5134 35.7876 99.0847 34.1118C99.6561 32.436 99.8428 30.653 99.6312 28.8952C99.4195 27.1374 98.8149 25.4498 97.8621 23.9575C96.9092 22.4652 95.6327 21.2066 94.1272 20.2749Z" fill="#EDBD31"/>
<path d="M78.2251 31.42C78.2228 29.2441 78.9022 27.1221 80.168 25.3522C81.4337 23.5823 83.2222 22.2534 85.282 21.5522C87.3419 20.851 89.5697 20.8128 91.6524 21.4429C93.7351 22.0729 95.5681 23.3397 96.8938 25.0651C96.1811 23.8327 95.2232 22.7596 94.0794 21.912C92.9356 21.0644 91.6301 20.4604 90.2437 20.1372C88.8572 19.8141 87.4192 19.7787 86.0185 20.0333C84.6178 20.2878 83.2842 20.8269 82.1001 21.6172C80.916 22.4075 79.9065 23.4323 79.134 24.6281C78.3616 25.8239 77.8426 27.1655 77.609 28.5698C77.3755 29.9742 77.4325 31.4115 77.7764 32.793C78.1203 34.1744 78.7438 35.4707 79.6085 36.6017C78.7011 35.0256 78.224 33.2386 78.2251 31.42V31.42Z" fill="#F7DB5E"/>
<path d="M88.9308 22.7288V24.2295C89.4629 24.3014 89.9678 24.5084 90.3973 24.8308C90.8529 25.2155 91.2269 25.6876 91.4972 26.2191L90.0013 27.055C89.5516 26.2337 88.965 25.828 88.2366 25.828C87.8269 25.8138 87.4269 25.9553 87.1172 26.224C86.9774 26.3456 86.8654 26.4959 86.7887 26.6645C86.7119 26.8332 86.6723 27.0163 86.6723 27.2016C86.668 27.3691 86.6978 27.5356 86.76 27.6911C86.8222 27.8466 86.9155 27.9878 87.0341 28.106C87.4623 28.4589 87.9442 28.7411 88.4615 28.9419C88.986 29.1769 89.4968 29.4413 89.9916 29.7338C90.3287 29.929 90.6364 30.1709 90.9057 30.4524C91.4781 31.0652 91.7886 31.8774 91.7709 32.7157C91.783 33.5489 91.5067 34.3605 90.9888 35.0133C90.468 35.6767 89.74 36.1465 88.921 36.3478V37.9365H87.5767V36.3918C86.7231 36.2974 85.9209 35.9365 85.284 35.3604C84.6776 34.6689 84.2749 33.8228 84.1206 32.9162L85.8071 32.5642C85.9509 33.1783 86.241 33.7485 86.6528 34.2262C87.0529 34.5445 87.5522 34.712 88.0633 34.6995C88.5744 34.687 89.0649 34.4953 89.4489 34.1578C89.6337 33.9782 89.7788 33.7619 89.8748 33.5228C89.9708 33.2836 90.0156 33.027 90.0062 32.7695C90.0168 32.5456 89.981 32.3219 89.9011 32.1124C89.8212 31.903 89.6989 31.7123 89.5418 31.5523C89.3238 31.3667 89.088 31.203 88.8379 31.0635C88.455 30.8384 88.0601 30.6344 87.6549 30.4524C86.9261 30.1813 86.2607 29.7637 85.6996 29.2254C85.2072 28.6774 84.9416 27.9627 84.9565 27.2261C84.9535 26.8761 85.0131 26.5285 85.1325 26.1995C85.2427 25.8858 85.4083 25.5944 85.6213 25.3392C85.8575 25.0702 86.1367 24.8422 86.4475 24.6646C86.7965 24.4688 87.1695 24.3193 87.5571 24.2197V22.719L88.9308 22.7288Z" fill="#D49A34"/>
<path d="M33.2698 8.67675C32.8194 9.7062 32.4172 10.607 32.0634 11.3791C31.7095 12.1512 31.4039 12.8107 31.1465 13.3576C30.857 13.9688 30.6157 14.5157 30.4227 14.9983C30.2618 15.3521 30.0527 15.8347 29.7953 16.4459C29.538 16.9928 29.2163 17.7167 28.8302 18.6174C28.4764 19.486 28.0099 20.612 27.4308 21.9953C27.1413 20.805 26.7874 19.7595 26.3692 18.8587C25.951 17.9579 25.5006 17.1698 25.018 16.4942C24.5355 15.8186 24.0207 15.2717 23.4738 14.8535C22.9591 14.4031 22.4444 14.0331 21.9297 13.7436C20.7393 13.1002 19.4847 12.7463 18.1657 12.682C16.4285 12.7785 15.0612 13.068 14.064 13.5506C13.0988 14.001 12.3911 14.5318 11.9407 15.143C11.4903 15.7221 11.249 16.3333 11.2169 16.9767C11.1847 17.588 11.2651 18.1027 11.4581 18.5209C11.619 18.907 12.182 19.3574 13.1471 19.8721C14.1444 20.3868 15.3347 20.982 16.718 21.6576C18.1335 22.301 19.6455 23.0409 21.2541 23.8773C22.8626 24.6816 24.3424 25.5824 25.6936 26.5797C27.0769 27.5448 28.2351 28.6064 29.168 29.7645C30.1331 30.8905 30.664 32.0969 30.7605 33.3837C30.857 35.0244 30.8409 36.5043 30.7122 37.8233C30.5835 39.1422 30.1331 40.2682 29.361 41.2012C28.589 42.1341 27.3826 42.874 25.7419 43.4209C24.1333 43.9678 21.8975 44.3056 19.0343 44.4343C16.0746 44.563 13.6457 44.4021 11.7477 43.9517C9.84961 43.5014 8.30543 42.8901 7.11512 42.118C5.95698 41.3459 5.08837 40.4934 4.5093 39.5605C3.9624 38.6275 3.56027 37.7428 3.30291 36.9064C3.04554 36.0378 2.8686 35.2979 2.77209 34.6866C2.67558 34.0432 2.51473 33.6572 2.28953 33.5285C2.03217 33.3676 1.77481 33.2229 1.51744 33.0942C1.29225 32.9655 1.05097 32.8529 0.793605 32.7564C0.53624 32.6277 0.278876 32.5151 0.0215117 32.4186L14.064 30.1506C13.2597 30.794 12.6324 31.3891 12.182 31.936C11.7638 32.4829 11.4421 32.9655 11.2169 33.3837C10.9595 33.8663 10.7826 34.3167 10.686 34.7349C10.6217 35.1853 10.7665 35.7483 11.1203 36.4238C11.4742 37.0994 11.9568 37.7589 12.568 38.4023C13.2114 39.0136 13.9514 39.5283 14.7878 39.9465C15.6242 40.3647 16.4928 40.5417 17.3936 40.4773C18.5196 40.3808 19.4364 40.1074 20.1442 39.657C20.8519 39.1744 21.3828 38.5793 21.7366 37.8715C22.1227 37.1638 22.3479 36.3917 22.4122 35.5552C22.4765 34.7188 22.3961 33.8984 22.1709 33.0942C21.9779 32.2578 21.6562 31.4857 21.2058 30.7779C20.7554 30.038 20.2246 29.4267 19.6134 28.9442C19.0665 28.5581 18.214 28.1882 17.0558 27.8343C15.9298 27.4804 14.6591 27.0944 13.2436 26.6762C11.8603 26.2579 10.4287 25.7754 8.94884 25.2285C7.50116 24.6816 6.18217 24.006 4.99186 23.2017C3.83372 22.3975 2.90078 21.4485 2.19302 20.3547C1.51744 19.2609 1.26008 17.9419 1.42093 16.3977C1.54961 15.0787 1.96783 13.9849 2.67558 13.1163C3.4155 12.2155 4.33236 11.5078 5.42616 10.993C6.55213 10.4461 7.7907 10.044 9.14186 9.78663C10.5252 9.52926 11.9246 9.3845 13.3401 9.35233C14.7878 9.28799 16.2033 9.30407 17.5866 9.40058C19.0021 9.49709 20.2729 9.60969 21.3988 9.73837C22.5248 9.86706 23.4738 9.99574 24.2459 10.1244C25.0502 10.2209 25.5488 10.2853 25.7419 10.3174C26.5783 10.3818 27.4147 10.3657 28.2512 10.2692C28.9911 10.2048 29.7953 10.0601 30.664 9.83488C31.5647 9.57752 32.4333 9.19147 33.2698 8.67675ZM32.6791 13.5988C33.6442 13.6953 34.4485 13.7758 35.0919 13.8401C35.7675 13.9045 36.3144 13.9527 36.7326 13.9849C37.2152 14.0171 37.6012 14.0331 37.8907 14.0331C38.1803 14.0653 38.5663 14.0653 39.0489 14.0331C39.4671 14.001 40.014 13.9688 40.6896 13.9366C41.3652 13.8723 42.2177 13.7758 43.2471 13.6471C43.0219 13.9688 42.845 14.2583 42.7163 14.5157C42.5876 14.7409 42.475 14.95 42.3785 15.143L42.089 15.7221C42.0247 15.9151 41.9603 16.1081 41.896 16.3012C41.8316 16.462 41.7673 16.655 41.703 16.8802C41.6708 17.1054 41.6386 17.3467 41.6064 17.6041H49.0378L48.3623 21.5128L41.5582 21.1267C41.3973 22.7674 41.2847 24.0382 41.2204 24.939C41.1561 25.8397 41.0917 26.4992 41.0274 26.9174L40.9309 27.786C40.8343 29.0085 40.7378 30.3436 40.6413 31.7913C40.5448 33.2068 40.5126 34.5258 40.5448 35.7483C40.577 36.9707 40.6896 38.0002 40.8826 38.8366C41.0756 39.6409 41.4134 40.043 41.896 40.043C42.3785 40.043 42.8289 39.9143 43.2471 39.657C43.6654 39.3996 44.0192 39.094 44.3088 38.7401C44.6305 38.3862 44.8718 38.0324 45.0326 37.6785C45.1935 37.2924 45.2739 37.0029 45.2739 36.8099C45.2739 36.6169 45.2256 36.3917 45.1291 36.1343C44.9683 35.6517 44.6787 35.0405 44.2605 34.3006C45.1935 34.5258 46.0138 34.751 46.7216 34.9762C47.0754 35.1048 47.3971 35.2335 47.6867 35.3622C48.0084 35.4909 48.3783 35.6357 48.7966 35.7965C49.1504 35.9574 49.6008 36.1504 50.1477 36.3756C50.6946 36.6008 51.338 36.8742 52.078 37.1959C51.3702 37.3246 50.8555 37.5337 50.5338 37.8233C50.3407 37.9519 50.196 38.0967 50.0995 38.2576C49.8743 38.6114 49.6169 39.094 49.3274 39.7052C49.0378 40.2843 48.6035 40.8634 48.0245 41.4424C47.4454 42.0215 46.6572 42.5362 45.6599 42.9866C44.6948 43.437 43.3919 43.6944 41.7512 43.7587C40.0462 43.8231 38.7433 43.5335 37.8425 42.8901C36.9739 42.2467 36.3305 41.5068 35.9123 40.6703C35.5262 39.8017 35.301 38.9492 35.2367 38.1128C35.1723 37.2764 35.1241 36.7134 35.0919 36.4238C35.0597 36.1343 35.0597 35.4105 35.0919 34.2523C35.1241 33.0942 35.1723 31.8235 35.2367 30.4401C35.301 29.0246 35.3654 27.6735 35.4297 26.3866C35.494 25.0676 35.5262 24.1025 35.5262 23.4913C35.5262 23.1696 35.5423 22.8318 35.5745 22.4779C35.5745 22.1884 35.5745 21.8828 35.5745 21.561C35.6066 21.2072 35.6227 20.8694 35.6227 20.5477L28.6256 20.4994L28.3361 17.7488L35.3814 17.9419C35.3171 17.588 35.2367 17.2663 35.1402 16.9767C35.0758 16.655 35.0115 16.3977 34.9471 16.2047C34.8506 15.9795 34.7541 15.7864 34.6576 15.6256C34.5289 15.4647 34.3842 15.2878 34.2233 15.0948C34.0625 14.9339 33.8533 14.7248 33.596 14.4674C33.3386 14.2101 33.033 13.9205 32.6791 13.5988ZM49.1228 20.8855C49.734 20.9176 50.2809 20.9337 50.7635 20.9337C51.2782 20.9016 51.7125 20.8694 52.0664 20.8372C52.4846 20.805 52.8546 20.7729 53.1763 20.7407C53.6588 20.6764 54.1575 20.5959 54.6722 20.4994C55.1226 20.4351 55.589 20.3547 56.0716 20.2581C56.5863 20.1295 57.085 19.9847 57.5675 19.8238C57.3745 20.3064 57.2137 20.7246 57.085 21.0785C56.9563 21.4324 56.8598 21.738 56.7954 21.9953C56.6989 22.2849 56.6507 22.5262 56.6507 22.7192C56.6185 22.9444 56.6024 23.2178 56.6024 23.5395C56.5702 24.0864 56.5702 24.9711 56.6024 26.1936C58.2753 24.7459 59.6747 23.62 60.8007 22.8157C61.9588 22.0114 62.8757 21.3841 63.5513 20.9337C64.3555 20.419 64.9828 20.0812 65.4332 19.9203C66.6235 19.7273 67.6691 20.0008 68.5699 20.7407C68.9559 21.0624 69.3259 21.4967 69.6797 22.0436C70.0336 22.5583 70.3392 23.25 70.5966 24.1186C70.854 24.9872 71.047 26.0328 71.1757 27.2552C71.3044 28.4455 71.3204 29.8771 71.2239 31.55C70.5483 31.6143 69.9371 31.6787 69.3902 31.743C68.8755 31.8074 68.4412 31.8556 68.0873 31.8878C67.6691 31.9521 67.283 31.9843 66.9292 31.9843L65.6263 32.1291C65.1759 32.1934 64.6129 32.2578 63.9373 32.3221C63.2939 32.3543 62.5057 32.4186 61.5728 32.5151C62.9239 31.4213 63.7925 30.4723 64.1786 29.668C64.5968 28.8316 64.7737 28.1399 64.7094 27.593C64.6451 26.9818 64.3555 26.451 63.8408 26.0006C63.2296 25.6467 62.5701 25.518 61.8623 25.6145C61.2511 25.6789 60.5433 25.9523 59.739 26.4349C58.9348 26.9174 58.0823 27.8182 57.1815 29.1372C57.2458 31.1961 57.3102 32.9012 57.3745 34.2523C57.471 35.6035 57.5514 36.6973 57.6158 37.5337C57.7123 38.4988 57.7927 39.2548 57.8571 39.8017C57.9536 40.2843 58.1466 40.799 58.4361 41.3459C58.6613 41.7963 58.983 42.295 59.4013 42.8419C59.8195 43.3888 60.3664 43.9357 61.042 44.4826C59.6264 44.4182 58.4683 44.4182 57.5675 44.4826C57.0206 44.5147 56.5381 44.5469 56.1199 44.5791C55.6695 44.6434 55.1869 44.7078 54.6722 44.7721C54.2218 44.8364 53.691 44.9008 53.0797 44.9651C52.5007 45.0616 51.8573 45.1581 51.1495 45.2547C51.4069 44.9008 51.616 44.4826 51.7768 44C51.9377 43.5496 52.0664 43.1153 52.1629 42.6971C52.2916 42.2145 52.3881 41.7159 52.4524 41.2012C52.4846 40.7508 52.5007 40.0752 52.5007 39.1744C52.5328 38.2736 52.5168 37.2603 52.4524 36.1343C52.4202 34.9762 52.372 33.7859 52.3077 32.5634C52.2433 31.3087 52.1629 30.1345 52.0664 29.0407C51.9699 27.9469 51.8573 26.9979 51.7286 26.1936C51.6321 25.3572 51.5195 24.7781 51.3908 24.4564C51.2299 24.0703 51.0369 23.6843 50.8117 23.2983C50.6187 22.9444 50.3774 22.5744 50.0879 22.1884C49.7983 21.7702 49.4766 21.3359 49.1228 20.8855ZM104.92 38.6919C105.145 37.6302 105.306 36.6973 105.403 35.893C105.531 35.0566 105.628 34.3649 105.692 33.818C105.756 33.1746 105.789 32.6277 105.789 32.1773C105.756 31.6304 105.724 30.987 105.692 30.2471C105.692 29.475 105.66 28.719 105.596 27.9791C105.563 27.207 105.515 26.5314 105.451 25.9523C105.386 25.3411 105.306 24.9068 105.21 24.6494C105.081 24.3921 104.904 24.1186 104.679 23.8291C104.228 23.2822 103.569 22.7514 102.7 22.2366C103.44 22.0758 104.067 21.9471 104.582 21.8506C105.129 21.7219 105.579 21.6093 105.933 21.5128C106.319 21.3841 106.657 21.2715 106.947 21.175C107.204 21.0785 107.51 20.982 107.864 20.8855C108.153 20.8211 108.507 20.7407 108.925 20.6442C109.343 20.5477 109.826 20.4351 110.373 20.3064L110.228 24.6977C111.258 23.4752 112.303 22.5583 113.365 21.9471C114.426 21.3359 115.424 20.9016 116.357 20.6442C117.418 20.3225 118.464 20.1616 119.493 20.1616C120.78 20.226 121.97 20.4351 123.064 20.789C124.19 21.1428 125.155 21.561 125.96 22.0436C126.796 22.494 127.472 22.9766 127.986 23.4913C128.501 24.006 128.807 24.4564 128.903 24.8424C129.289 26.0971 129.386 27.2552 129.193 28.3169C129 29.3463 128.742 30.3597 128.421 31.357C128.131 32.3221 127.874 33.2872 127.648 34.2523C127.455 35.2174 127.536 36.263 127.89 37.389C128.018 37.6785 128.147 37.968 128.276 38.2576C128.404 38.5149 128.565 38.7723 128.758 39.0297C128.951 39.287 129.177 39.4961 129.434 39.657C129.08 39.6248 128.726 39.6087 128.372 39.6087C128.018 39.5766 127.697 39.5444 127.407 39.5122C127.053 39.48 126.732 39.4479 126.442 39.4157C126.12 39.3835 125.686 39.3674 125.139 39.3674C124.206 39.3674 122.759 39.4157 120.796 39.5122C121.086 38.8366 121.311 38.2736 121.472 37.8233C121.665 37.3407 121.826 36.9547 121.954 36.6651C122.083 36.3112 122.179 36.0378 122.244 35.8448C122.63 34.9118 122.855 33.8502 122.919 32.6599C123.016 31.4696 122.935 30.2632 122.678 29.0407C122.582 28.6225 122.421 28.1238 122.196 27.5448C121.97 26.9657 121.665 26.4027 121.279 25.8558C120.925 25.3089 120.491 24.8424 119.976 24.4564C119.493 24.0703 118.93 23.8452 118.287 23.7808C117.643 23.7165 116.92 23.8773 116.115 24.2634C115.343 24.6494 114.507 25.3572 113.606 26.3866C112.93 27.2552 112.4 28.3169 112.014 29.5715C111.66 30.6331 111.418 31.9682 111.29 33.5767C111.161 35.1531 111.354 37.0029 111.869 39.1262C111.418 39.0618 111 39.0297 110.614 39.0297C110.228 38.9975 109.906 38.9653 109.649 38.9331C109.327 38.901 109.038 38.8688 108.78 38.8366C108.491 38.8366 108.169 38.8205 107.815 38.7884C107.494 38.7884 107.092 38.7884 106.609 38.7884C106.126 38.7562 105.563 38.724 104.92 38.6919ZM144.43 36.2308C145.331 36.2308 146.167 36.1343 146.939 35.9413C147.583 35.7804 148.194 35.5231 148.773 35.1692C149.384 34.7831 149.786 34.2202 149.979 33.4802C150.623 33.6089 151.17 33.7215 151.62 33.818C152.07 33.8824 152.456 33.9467 152.778 34.011C153.132 34.1076 153.438 34.1719 153.695 34.2041C153.952 34.2684 154.258 34.3328 154.612 34.3971C154.934 34.4614 155.32 34.5419 155.77 34.6384C156.253 34.7027 156.816 34.7992 157.459 34.9279C156.976 34.8636 156.478 34.9118 155.963 35.0727C155.481 35.2335 155.014 35.4105 154.564 35.6035C154.049 35.8287 153.566 36.1021 153.116 36.4238C152.826 36.6169 152.489 36.9064 152.103 37.2924C151.749 37.6785 151.234 38.0484 150.558 38.4023C149.883 38.7562 148.982 39.0618 147.856 39.3192C146.762 39.5444 145.347 39.6248 143.61 39.5605C141.518 39.4961 139.765 39.1262 138.35 38.4506C136.934 37.7428 135.792 36.8903 134.924 35.893C134.055 34.8636 133.428 33.7537 133.042 32.5634C132.656 31.3731 132.446 30.2632 132.414 29.2337C132.382 28.2043 132.688 27.1266 133.331 26.0006C133.974 24.8746 134.875 23.8452 136.033 22.9122C137.224 21.9793 138.655 21.2233 140.328 20.6442C142.001 20.0329 143.835 19.7273 145.829 19.7273C146.987 19.7273 148.049 19.8721 149.014 20.1616C150.012 20.419 150.912 20.7729 151.717 21.2233C152.553 21.6736 153.277 22.1884 153.888 22.7674C154.499 23.3143 155.014 23.8773 155.432 24.4564C155.85 25.0676 156.204 25.711 156.494 26.3866C156.751 26.9657 156.96 27.6252 157.121 28.3651C157.282 29.105 157.33 29.861 157.266 30.6331C154.821 30.6975 152.843 30.7457 151.331 30.7779C149.851 30.8101 148.693 30.8262 147.856 30.8262H145.685H144.044C143.465 30.8262 142.709 30.8422 141.776 30.8744C140.843 30.9066 139.701 30.9548 138.35 31.0192C138.511 32.306 138.913 33.3033 139.556 34.011C140.232 34.6866 140.939 35.2014 141.679 35.5552C142.516 35.9413 143.433 36.1665 144.43 36.2308ZM140.087 27.5448C141.116 27.6091 141.969 27.6574 142.644 27.6895C143.352 27.7217 143.931 27.7539 144.382 27.786C144.864 27.8182 145.25 27.8343 145.54 27.8343H146.746C147.55 27.8343 149.046 27.786 151.234 27.6895C151.137 26.274 150.832 25.1963 150.317 24.4564C149.835 23.7165 149.32 23.1696 148.773 22.8157C148.13 22.4297 147.422 22.2045 146.65 22.1401C144.559 22.1723 142.998 22.6066 141.969 23.443C140.972 24.2795 140.344 25.6467 140.087 27.5448Z" fill="black"/>
</svg>
